<svg width="733" height="412" viewBox="0 0 733 412" fill="none" xmlns="http://www.w3.org/2000/svg">
<mask id="mask0_3971_9717" style="mask-type:alpha" maskUnits="userSpaceOnUse" x="168" y="50" width="405" height="300">
<rect width="405" height="300" transform="translate(168 50)" fill="white"/>
</mask>
<g mask="url(#mask0_3971_9717)">
</g>
<g clip-path="url(#clip0_3971_9717)">
<g clip-path="url(#clip1_3971_9717)">
<path d="M414.051 135.858H368.75C367.759 135.861 366.779 135.637 365.887 135.204C364.994 134.771 364.212 134.14 363.6 133.359V133.359C362.977 132.57 362.542 131.65 362.327 130.667C362.113 129.685 362.126 128.666 362.364 127.689C366.539 110.181 366.539 91.9343 362.363 74.4259C362.125 73.449 362.113 72.4306 362.327 71.4482C362.542 70.4658 362.977 69.5453 363.6 68.7568C364.212 67.9755 364.994 67.3443 365.887 66.9113C366.779 66.4783 367.759 66.2548 368.75 66.2578H414.051C415.615 66.2623 417.127 66.8225 418.317 67.8387C419.507 68.8548 420.298 70.2608 420.55 71.8064C423.531 91.1931 423.531 110.922 420.55 130.309C420.298 131.855 419.507 133.261 418.317 134.277C417.127 135.293 415.615 135.853 414.051 135.858V135.858Z" fill="#E6E6E6"/>
<path d="M368.75 69.6704C368.274 69.6688 367.804 69.776 367.375 69.9838C366.946 70.1916 366.571 70.4946 366.277 70.8696C365.974 71.2539 365.762 71.7023 365.659 72.1806C365.555 72.659 365.562 73.1547 365.678 73.6302C369.978 91.6618 369.978 110.454 365.678 128.485C365.562 128.961 365.555 129.456 365.659 129.935C365.762 130.413 365.974 130.861 366.277 131.245L366.277 131.246C366.571 131.621 366.946 131.924 367.375 132.132C367.804 132.339 368.274 132.447 368.75 132.445H414.051C414.802 132.445 415.529 132.179 416.102 131.693C416.675 131.206 417.058 130.532 417.181 129.791C420.109 110.748 420.109 91.3679 417.181 72.3249C417.058 71.583 416.675 70.909 416.102 70.4229C415.529 69.9368 414.802 69.6702 414.051 69.6704L368.75 69.6704Z" fill="white"/>
<path d="M404.166 86.0799H380.394C379.49 86.0789 378.624 85.7191 377.985 85.0793C377.346 84.4396 376.986 83.5722 376.985 82.6674V81.3339C376.986 80.4291 377.346 79.5617 377.985 78.922C378.624 78.2822 379.49 77.9224 380.394 77.9214H404.166C405.069 77.9224 405.936 78.2822 406.575 78.922C407.214 79.5617 407.573 80.4291 407.574 81.3339V82.6675C407.573 83.5722 407.214 84.4396 406.575 85.0793C405.936 85.7191 405.069 86.0789 404.166 86.0799Z" fill="#E6E6E6"/>
<path d="M404.166 102.93H380.394C379.49 102.929 378.624 102.569 377.985 101.93C377.346 101.29 376.986 100.423 376.985 99.5178V98.1842C376.986 97.2795 377.346 96.412 377.985 95.7723C378.624 95.1325 379.49 94.7727 380.394 94.7717H404.166C405.069 94.7727 405.936 95.1325 406.575 95.7723C407.214 96.412 407.573 97.2795 407.574 98.1842V99.5178C407.573 100.423 407.214 101.29 406.575 101.93C405.936 102.569 405.069 102.929 404.166 102.93Z" fill="#E6E6E6"/>
<path d="M404.166 119.78H380.394C379.49 119.779 378.624 119.42 377.985 118.78C377.346 118.14 376.986 117.273 376.985 116.368V115.034C376.986 114.13 377.346 113.262 377.985 112.622C378.624 111.983 379.49 111.623 380.394 111.622H404.166C405.069 111.623 405.936 111.983 406.575 112.622C407.214 113.262 407.573 114.13 407.574 115.034V116.368C407.573 117.273 407.214 118.14 406.575 118.78C405.936 119.42 405.069 119.779 404.166 119.78V119.78Z" fill="#E6E6E6"/>
<path d="M499.265 179.084H453.965C452.973 179.087 451.994 178.864 451.101 178.431C450.209 177.998 449.427 177.367 448.815 176.585V176.585C448.191 175.797 447.756 174.876 447.542 173.894C447.327 172.911 447.34 171.893 447.578 170.916C451.753 153.407 451.753 135.161 447.578 117.652C447.34 116.676 447.327 115.657 447.542 114.675C447.756 113.692 448.191 112.772 448.814 111.983C449.427 111.202 450.209 110.571 451.101 110.138C451.994 109.705 452.973 109.481 453.965 109.484H499.265C500.83 109.489 502.341 110.049 503.531 111.065C504.721 112.081 505.513 113.487 505.764 115.033C508.745 134.42 508.745 154.149 505.764 173.536C505.513 175.081 504.721 176.487 503.531 177.503C502.341 178.52 500.83 179.08 499.265 179.084Z" fill="#E6E6E6"/>
<path d="M453.965 112.897C453.488 112.895 453.018 113.003 452.589 113.21C452.161 113.418 451.785 113.721 451.491 114.096C451.188 114.48 450.977 114.929 450.873 115.407C450.769 115.886 450.776 116.381 450.892 116.857C455.192 134.888 455.192 153.68 450.893 171.712C450.776 172.187 450.769 172.683 450.873 173.161C450.977 173.639 451.188 174.088 451.491 174.472L451.491 174.472C451.785 174.847 452.161 175.15 452.589 175.358C453.018 175.566 453.488 175.673 453.965 175.672H499.265C500.017 175.672 500.743 175.405 501.317 174.919C501.89 174.433 502.272 173.759 502.395 173.017C505.323 153.974 505.323 134.594 502.395 115.551C502.272 114.81 501.89 114.136 501.317 113.65C500.743 113.163 500.017 112.897 499.265 112.897L453.965 112.897Z" fill="white"/>
<path d="M408.938 228.283H363.638C362.603 228.286 361.581 228.053 360.65 227.601C359.719 227.149 358.903 226.491 358.264 225.676C357.614 224.853 357.16 223.893 356.937 222.869C356.714 221.845 356.726 220.783 356.975 219.764C361.139 202.299 361.139 184.098 356.974 166.633C356.726 165.614 356.713 164.552 356.937 163.528C357.16 162.504 357.614 161.544 358.264 160.722C358.903 159.906 359.719 159.248 360.65 158.796C361.581 158.344 362.603 158.111 363.638 158.114H408.938C410.57 158.119 412.147 158.704 413.389 159.764C414.63 160.824 415.455 162.291 415.717 163.904C418.703 183.319 418.703 203.078 415.717 222.493C415.455 224.106 414.63 225.573 413.389 226.633C412.147 227.693 410.57 228.278 408.938 228.283V228.283Z" fill="#F2F2F2"/>
<path d="M489.38 137.838H465.608C464.704 137.837 463.838 137.477 463.199 136.837C462.56 136.198 462.2 135.33 462.199 134.425V133.092C462.2 132.187 462.56 131.32 463.199 130.68C463.838 130.04 464.704 129.68 465.608 129.679H489.38C490.284 129.68 491.15 130.04 491.789 130.68C492.428 131.32 492.787 132.187 492.788 133.092V134.426C492.787 135.33 492.428 136.198 491.789 136.837C491.15 137.477 490.284 137.837 489.38 137.838V137.838Z" fill="#E6E6E6"/>
<path d="M489.38 154.688H465.608C464.704 154.687 463.838 154.327 463.199 153.688C462.56 153.048 462.2 152.181 462.199 151.276V149.942C462.2 149.038 462.56 148.17 463.199 147.53C463.838 146.891 464.704 146.531 465.608 146.53H489.38C490.284 146.531 491.15 146.891 491.789 147.53C492.428 148.17 492.787 149.038 492.788 149.942V151.276C492.787 152.181 492.428 153.048 491.789 153.688C491.15 154.327 490.284 154.687 489.38 154.688V154.688Z" fill="#E6E6E6"/>
<path d="M386.415 206.045C393.631 206.045 399.481 200.189 399.481 192.964C399.481 185.739 393.631 179.882 386.415 179.882C379.198 179.882 373.348 185.739 373.348 192.964C373.348 200.189 379.198 206.045 386.415 206.045Z" fill="white"/>
<path d="M392.664 191.257H388.119V186.707C388.119 186.255 387.939 185.821 387.62 185.501C387.3 185.181 386.867 185.001 386.415 185.001C385.963 185.001 385.529 185.181 385.21 185.501C384.89 185.821 384.71 186.255 384.71 186.707V191.257H380.166C379.714 191.257 379.28 191.437 378.96 191.757C378.641 192.077 378.461 192.511 378.461 192.964C378.461 193.416 378.641 193.85 378.96 194.17C379.28 194.49 379.714 194.67 380.166 194.67H384.71V199.22C384.71 199.673 384.89 200.107 385.21 200.427C385.529 200.747 385.963 200.927 386.415 200.927C386.867 200.927 387.3 200.747 387.62 200.427C387.939 200.107 388.119 199.673 388.119 199.22V194.67H392.664C393.116 194.67 393.549 194.49 393.869 194.17C394.188 193.85 394.368 193.416 394.368 192.964C394.368 192.511 394.188 192.077 393.869 191.757C393.549 191.437 393.116 191.257 392.664 191.257V191.257Z" fill="#E6E6E6"/>
<path d="M402.889 72.6691H379.029C378.352 72.6683 377.702 72.3984 377.223 71.9186C376.743 71.4388 376.474 70.7882 376.473 70.1096V65.5595C376.474 64.8809 376.743 64.2303 377.223 63.7505C377.702 63.2707 378.352 63.0008 379.029 63H402.889C403.567 63.0008 404.217 63.2707 404.696 63.7505C405.176 64.2303 405.445 64.8809 405.446 65.5595V70.1096C405.445 70.7882 405.176 71.4388 404.696 71.9186C404.217 72.3984 403.567 72.6683 402.889 72.6691Z" fill="#CCCCCC"/>
<path d="M489.24 116.464H465.38C464.702 116.463 464.052 116.194 463.573 115.714C463.094 115.234 462.824 114.583 462.823 113.905V109.355C462.824 108.676 463.094 108.025 463.573 107.546C464.052 107.066 464.702 106.796 465.38 106.795H489.24C489.918 106.796 490.567 107.066 491.047 107.546C491.526 108.025 491.796 108.676 491.796 109.355V113.905C491.796 114.583 491.526 115.234 491.047 115.714C490.567 116.194 489.918 116.463 489.24 116.464Z" fill="#CCCCCC"/>
<path d="M282.331 330.925H289.296L291.473 304.029H282.33L282.331 330.925Z" fill="#FFB8B8"/>
<path d="M280.555 328.649L294.271 328.648H294.271C295.419 328.648 296.556 328.874 297.616 329.314C298.677 329.754 299.64 330.398 300.452 331.211C301.264 332.024 301.908 332.988 302.347 334.05C302.786 335.112 303.012 336.25 303.012 337.399V337.684L280.555 337.684L280.555 328.649Z" fill="#2F2E41"/>
<path d="M244.837 330.925H251.802L255.115 304.029H244.836L244.837 330.925Z" fill="#FFB8B8"/>
<path d="M243.06 328.649L256.776 328.648H256.777C257.925 328.648 259.062 328.874 260.122 329.314C261.183 329.754 262.146 330.398 262.958 331.211C263.769 332.024 264.413 332.988 264.853 334.05C265.292 335.112 265.518 336.25 265.518 337.399V337.684L243.061 337.684L243.06 328.649Z" fill="#2F2E41"/>
<path d="M246.072 322.429C245.362 322.428 244.678 322.161 244.155 321.679V321.679C243.875 321.423 243.649 321.112 243.491 320.767C243.333 320.421 243.247 320.047 243.237 319.667L240.444 219.442L280.103 229.368L292.34 266.121C293.918 270.849 294.601 275.83 294.354 280.809L292.835 316.435C292.8 317.165 292.486 317.853 291.958 318.357C291.429 318.861 290.727 319.142 289.997 319.141H283.346C282.659 319.139 281.996 318.888 281.479 318.436C280.962 317.984 280.626 317.36 280.531 316.679L275.776 277.353C275.361 274.285 274.289 271.344 272.634 268.728L263.278 253.897C263.215 253.798 263.124 253.721 263.015 253.676C262.907 253.631 262.788 253.62 262.674 253.646C262.559 253.671 262.456 253.732 262.377 253.818C262.298 253.905 262.248 254.014 262.234 254.13L254.891 319.589C254.813 320.253 254.502 320.868 254.015 321.325C253.528 321.783 252.895 322.053 252.229 322.09L246.234 322.424C246.18 322.427 246.126 322.429 246.072 322.429Z" fill="#2F2E41"/>
<path d="M273.504 154.553C281.21 154.553 287.457 148.299 287.457 140.584C287.457 132.868 281.21 126.614 273.504 126.614C265.798 126.614 259.551 132.868 259.551 140.584C259.551 148.299 265.798 154.553 273.504 154.553Z" fill="#FFB8B8"/>
<path d="M279.913 233.444C279.673 233.444 279.434 233.414 279.202 233.354H279.201L239.852 223.253C239.149 223.072 238.541 222.629 238.154 222.014C237.767 221.398 237.63 220.658 237.772 219.945L246.808 171.207C247.371 168.389 248.609 165.751 250.415 163.518C252.221 161.285 254.541 159.524 257.176 158.387C259.744 157.249 262.552 156.762 265.352 156.967C268.153 157.173 270.859 158.066 273.234 159.567C273.784 159.911 274.339 160.286 274.883 160.682C277.069 162.297 278.852 164.397 280.092 166.818C281.332 169.239 281.995 171.914 282.029 174.634L282.747 230.56C282.752 230.936 282.682 231.31 282.542 231.659C282.402 232.008 282.194 232.326 281.931 232.594C281.667 232.862 281.353 233.075 281.007 233.221C280.661 233.367 280.289 233.443 279.913 233.444V233.444Z" fill="#00A380"/>
<path d="M243.901 234.018C243.432 233.326 243.12 232.54 242.987 231.714C242.853 230.889 242.903 230.044 243.131 229.24C243.359 228.436 243.761 227.691 244.308 227.059C244.854 226.427 245.533 225.923 246.295 225.582L244.545 205.332L253.82 210.365L254.06 228.822C254.547 230.143 254.534 231.596 254.023 232.908C253.512 234.219 252.538 235.297 251.285 235.938C250.033 236.578 248.59 236.736 247.229 236.382C245.868 236.029 244.684 235.187 243.901 234.018H243.901Z" fill="#FFB8B8"/>
<path d="M247.215 222.903C246.953 222.903 246.692 222.87 246.439 222.805C245.894 222.666 245.396 222.382 244.999 221.983C244.602 221.583 244.32 221.084 244.182 220.538L239.625 202.403C238.032 196.07 238.791 189.372 241.761 183.557L251.31 164.855C251.914 162.616 253.372 160.704 255.371 159.532C257.37 158.359 259.749 158.02 261.995 158.588C263.115 158.871 264.167 159.374 265.091 160.067C266.015 160.76 266.792 161.63 267.378 162.627C267.975 163.637 268.366 164.757 268.528 165.92C268.689 167.083 268.617 168.267 268.317 169.402L254.724 199.835L254.886 218.056C254.89 218.699 254.697 219.327 254.333 219.857C253.968 220.386 253.451 220.791 252.849 221.016L248.3 222.707C247.953 222.837 247.585 222.903 247.215 222.903Z" fill="#00A380"/>
<path d="M312.282 226.569C311.452 226.474 310.653 226.199 309.942 225.761C309.23 225.324 308.623 224.735 308.163 224.037C307.703 223.339 307.401 222.549 307.279 221.722C307.157 220.895 307.218 220.051 307.457 219.25L290.986 207.368L300.846 203.614L314.976 215.472C316.293 215.963 317.385 216.921 318.044 218.165C318.704 219.408 318.884 220.851 318.552 222.219C318.22 223.586 317.398 224.785 316.243 225.587C315.087 226.389 313.678 226.738 312.282 226.569H312.282Z" fill="#FFB8B8"/>
<path d="M303.66 217.893C303.174 217.893 302.695 217.78 302.26 217.563L285.559 209.192C279.725 206.269 275.151 201.324 272.686 195.277L264.757 175.83C263.455 173.911 262.959 171.557 263.376 169.276C263.792 166.994 265.087 164.968 266.982 163.633C267.929 162.967 268.999 162.496 270.129 162.247C271.26 161.999 272.428 161.978 273.567 162.187C274.718 162.394 275.818 162.828 276.801 163.464C277.784 164.1 278.631 164.925 279.293 165.891L293.465 196.058L307.364 207.822C307.853 208.238 308.203 208.794 308.366 209.416C308.529 210.038 308.498 210.695 308.276 211.298L306.589 215.853C306.369 216.45 305.971 216.965 305.449 217.329C304.924 217.697 304.3 217.893 303.66 217.893V217.893Z" fill="#00A380"/>
<path d="M270.574 154.767C271.315 155.092 272.833 149.178 272.153 147.995C271.142 146.236 271.202 146.248 270.53 145.084C269.859 143.92 269.709 142.327 270.578 141.303C271.448 140.279 273.459 140.415 273.856 141.699C273.601 139.26 276.01 137.3 278.397 136.749C280.784 136.198 283.301 136.54 285.701 136.05C288.486 135.481 291.384 133.144 290.272 130.077C290.082 129.567 289.796 129.097 289.431 128.693C288.147 127.248 286.351 126.631 284.595 126.034C280.943 124.793 277.19 123.536 273.335 123.673C270.158 123.839 267.099 124.929 264.531 126.809C261.964 128.689 260 131.277 258.879 134.257C258.613 135.003 258.407 135.768 258.263 136.547C256.94 143.67 261.072 150.697 267.782 153.409L270.574 154.767Z" fill="#2F2E41"/>
<path opacity="0.2" d="M254.099 218.469L254.415 199.74L264.325 179.793L256.371 200.268L254.099 218.469Z" fill="black"/>
<path d="M343.959 265.472L302.125 248.07C301.208 247.692 300.389 247.109 299.731 246.367C299.073 245.624 298.593 244.741 298.327 243.784C298.053 242.816 298.004 241.799 298.183 240.81C298.361 239.82 298.763 238.884 299.358 238.074C309.923 223.509 316.915 206.659 319.769 188.887C319.924 187.893 320.303 186.948 320.877 186.123C321.452 185.298 322.206 184.615 323.084 184.126C323.949 183.64 324.913 183.358 325.903 183.301C326.893 183.244 327.883 183.413 328.798 183.797L370.631 201.199C372.074 201.804 373.255 202.902 373.965 204.297C374.674 205.693 374.866 207.295 374.506 208.819C369.83 227.867 362.269 246.087 352.086 262.844C351.262 264.175 349.992 265.17 348.504 265.651C347.015 266.132 345.405 266.069 343.959 265.472Z" fill="#E6E6E6"/>
<path d="M327.49 186.949C327.051 186.764 326.575 186.682 326.1 186.71C325.624 186.737 325.161 186.872 324.746 187.106C324.319 187.344 323.952 187.677 323.673 188.079C323.394 188.481 323.21 188.941 323.135 189.425C320.196 207.728 312.994 225.082 302.113 240.082C301.824 240.476 301.627 240.931 301.54 241.413C301.452 241.894 301.476 242.389 301.608 242.86L301.608 242.861C301.736 243.32 301.967 243.744 302.283 244.101C302.599 244.458 302.992 244.737 303.433 244.919L345.266 262.321C345.96 262.609 346.733 262.642 347.449 262.413C348.164 262.185 348.776 261.709 349.174 261.071C359.176 244.611 366.603 226.714 371.196 208.004C371.367 207.272 371.272 206.502 370.929 205.833C370.586 205.164 370.017 204.639 369.324 204.35L327.49 186.949Z" fill="white"/>
<path d="M349.765 225.686L327.812 216.554C326.978 216.206 326.316 215.541 325.971 214.705C325.626 213.868 325.626 212.929 325.972 212.094L326.483 210.862C326.831 210.027 327.495 209.364 328.331 209.019C329.166 208.673 330.104 208.674 330.939 209.02L352.891 218.152C353.725 218.5 354.388 219.165 354.732 220.001C355.077 220.837 355.077 221.777 354.731 222.612L354.22 223.844C353.872 224.679 353.208 225.342 352.373 225.687C351.537 226.033 350.6 226.032 349.765 225.686V225.686Z" fill="#00A380"/>
<path d="M343.307 241.246L321.355 232.115C320.52 231.767 319.858 231.102 319.513 230.265C319.168 229.429 319.169 228.49 319.515 227.654L320.026 226.423C320.373 225.587 321.038 224.925 321.873 224.579C322.708 224.234 323.646 224.234 324.481 224.581L346.434 233.712C347.268 234.06 347.93 234.725 348.275 235.562C348.62 236.398 348.619 237.337 348.274 238.173L347.762 239.404C347.415 240.24 346.751 240.903 345.915 241.248C345.08 241.593 344.142 241.593 343.307 241.246V241.246Z" fill="#00A380"/>
<path d="M358.561 203.817C358.232 203.817 357.907 203.753 357.602 203.629L335.482 194.675C334.854 194.42 334.353 193.926 334.088 193.301C333.823 192.677 333.817 191.972 334.07 191.343L335.774 187.125C336.028 186.495 336.521 185.993 337.145 185.728C337.77 185.463 338.473 185.457 339.102 185.711L361.222 194.665C361.85 194.92 362.352 195.414 362.617 196.039C362.881 196.664 362.888 197.368 362.634 197.997L360.931 202.216C360.739 202.688 360.412 203.093 359.99 203.378C359.568 203.663 359.07 203.816 358.561 203.817V203.817Z" fill="#CCCCCC"/>
<path d="M312.101 338H232.568C232.417 338 232.273 337.94 232.166 337.833C232.06 337.727 232 337.582 232 337.431C232 337.28 232.06 337.136 232.166 337.029C232.273 336.922 232.417 336.863 232.568 336.863H312.101C312.252 336.863 312.397 336.922 312.503 337.029C312.61 337.136 312.67 337.28 312.67 337.431C312.67 337.582 312.61 337.727 312.503 337.833C312.397 337.94 312.252 338 312.101 338Z" fill="#CCCCCC"/>
</g>
</g>
<defs>
<clipPath id="clip0_3971_9717">
<rect width="405" height="300" fill="white" transform="translate(168 50)"/>
</clipPath>
<clipPath id="clip1_3971_9717">
<rect width="276" height="275" fill="white" transform="translate(232 63)"/>
</clipPath>
</defs>
</svg>
